<?xml version="1.0" encoding="utf-8"?>
<!-- Generator: Adobe Illustrator 23.0.3, SVG Export Plug-In . SVG Version: 6.00 Build 0)  -->
<svg version="1.1" id="Layer_1" xmlns="http://www.w3.org/2000/svg" xmlns:xlink="http://www.w3.org/1999/xlink" x="0px" y="0px"
	 viewBox="0 0 417.9 107.5" style="enable-background:new 0 0 417.9 107.5;" xml:space="preserve">
<style type="text/css">
	.st0{fill-rule:evenodd;clip-rule:evenodd;fill:#B48E2F;}
	.st1{fill:#B48E2F;}
</style>
<g>
	<g>
		<path class="st0" d="M31.8,105.2c4.8-3.1,12.2-7.6,10.2-25.5c-2.5-23-14.2-31.4-15.6-32.5c6.1,1.7,13.2,6.9,16.9,15.6
			c0,0,3-11.8,6.3-20.7c6-16.6,17.1-18.3,17.1-18.3s-14.2,8.9-15.6,36.3c-0.3,6.3-1.9,14.9,1.6,25.7c4.3,13.2,8.7,15.5,14,18.5
			c-7.5,0.5-16.7-1.2-20.6-4.6C42.7,103.2,38.6,105,31.8,105.2"/>
		<path class="st0" d="M56.9,43.3c1.3-3,3.6-5,6.3-5c2.7,0,6.6,1.8,9.3,4.8c-2.4,2.6-6.4,5-9.1,5.1C60.7,48.1,58.1,45.8,56.9,43.3"
			/>
		<path class="st0" d="M33.3,38.8c-3.2,0.7-6.4,0-8-2.2c-1.7-2.3-2.5-6.6-1.7-10.7c3.6,0.4,8.1,2.3,9.8,4.5
			C35.1,32.7,34.7,36.2,33.3,38.8"/>
		<path class="st0" d="M41.2,51.1c-3.1-0.8-5.5-2.7-6-5.4C34.8,43,36,39,38.5,35.8c2.9,1.9,6,5.5,6.4,8.2
			C45.4,46.7,43.5,49.5,41.2,51.1"/>
		<path class="st0" d="M55.5,53.7c2.7-0.9,5.4-0.5,6.9,1.3c1.6,1.8,2.6,5.3,2.2,8.9c-3.1-0.1-7-1.3-8.6-3.1
			C54.4,59,54.5,56,55.5,53.7"/>
		<path class="st0" d="M27.1,41.9c-1,2.2-2.7,3.7-4.8,3.7c-2,0-4.9-1.4-6.9-3.7c1.8-1.9,4.9-3.7,6.9-3.7
			C24.4,38.2,26.3,40,27.1,41.9"/>
		<path class="st0" d="M29.6,53.2c0.9,3.6,0.2,7-2.3,9c-2.5,1.9-7.2,2.9-11.8,2c0.4-4,2.4-9,4.8-10.9C22.8,51.4,26.7,51.7,29.6,53.2
			"/>
		<path class="st0" d="M44.4,35.4c-2.4-2.8-2.5-6-1.1-8.9c1.3-2.8,4.2-6,8.7-7.3c1.5,3.7,1.4,8.9,0,11.7
			C50.7,33.8,47.7,35.4,44.4,35.4"/>
		<path class="st0" d="M54.8,22.4c0.2-2.3,1.6-3.7,3.4-4.4c1.8-0.7,4.5-0.8,7,0.6c-1,2.3-3.3,4.5-5.1,5.1
			C58.3,24.4,56.2,23.8,54.8,22.4"/>
		<path class="st0" d="M64,31.1c1.1-2.6,3.1-4.4,5.5-4.5c2.4-0.1,5.8,1.4,8.2,4c-2,2.3-5.5,4.5-7.9,4.6C67.3,35.3,65.1,33.3,64,31.1
			"/>
		<path class="st0" d="M37.8,29.3c-3.6-0.8-5.6-3.3-6.2-6.4c-0.6-3.1-0.3-7.4,2.5-11.1c3.4,2.1,6.4,6.2,7.1,9.3
			C41.8,24.2,40.4,27.4,37.8,29.3"/>
		<path class="st0" d="M20.2,33.2c-2.6,1.3-5.1,0.8-7-0.7c-1.9-1.5-3.9-4.3-4.1-8c3.1-0.5,7.1,0.5,9,2C20.1,28,20.8,30.7,20.2,33.2"
			/>
		<path class="st0" d="M20,48.9c-0.7,2.9-2.8,4.4-5.3,4.8c-2.5,0.4-5.9,0-8.8-2.3c1.8-2.7,5.2-4.9,7.6-5.4
			C16.1,45.5,18.6,46.7,20,48.9"/>
		<path class="st0" d="M34.1,61.8c1.6,1.6,1.8,3.6,1.2,5.4c-0.7,1.8-2.3,3.9-4.9,5c-1.1-2.2-1.3-5.4-0.7-7.2
			C30.3,63.1,32.1,61.9,34.1,61.8"/>
		<path class="st0" d="M52.9,63.2c2.2-0.4,4,0.5,5.1,2c1.1,1.6,2,4.1,1.4,6.9c-2.4-0.3-5.2-1.9-6.3-3.5C51.9,67.1,51.9,65,52.9,63.2
			"/>
		<path class="st0" d="M68.9,22.6c0.1-2.3,1.4-3.8,3.2-4.5c1.8-0.8,4.4-1,7,0.2c-0.9,2.3-3,4.6-4.8,5.4C72.4,24.5,70.4,24,68.9,22.6
			"/>
		<path class="st0" d="M43,20c-1.5-2.1-1.9-4.6-0.7-6.5c1.1-1.9,4-3.7,7.2-4.3c0.8,2.7,0.7,6.5-0.4,8.4C48,19.5,45.3,20.2,43,20"/>
		<path class="st0" d="M27.3,22.7c-1.9,1.3-3.9,1-5.5,0c-1.6-1-3.4-3-3.8-5.9c2.4-0.6,5.5-0.2,7.2,0.8
			C26.8,18.7,27.6,20.7,27.3,22.7"/>
		<path class="st0" d="M16.5,37.6c-0.8,2.7-2.8,4-5.1,4.3c-2.3,0.3-5.5-0.2-8.1-2.5c1.7-2.4,5-4.5,7.3-4.8
			C12.9,34.3,15.2,35.6,16.5,37.6"/>
		<path class="st0" d="M64.6,50.2c2-1.6,4.3-1.6,6.3-0.6c2,1,4.2,3.1,5,6.3c-2.7,0.9-6.3,0.7-8.3-0.3C65.6,54.6,64.5,52.4,64.6,50.2
			"/>
		<path class="st0" d="M72.9,39.7c0.2-2.3,1.6-3.7,3.4-4.4c1.8-0.7,4.5-0.8,7,0.6c-1,2.3-3.3,4.5-5.1,5.1
			C76.3,41.7,74.3,41.1,72.9,39.7"/>
		<path class="st0" d="M53,15.6c0-2.3,1.3-3.8,3.1-4.6c1.8-0.8,4.4-1.1,7,0.1c-0.8,2.3-3,4.7-4.7,5.5C56.6,17.3,54.5,16.9,53,15.6"
			/>
		<path class="st0" d="M29.6,15.3c-2.8-0.4-5.1-1.8-5.8-4.1c-0.7-2.3-0.1-5.9,1.8-9c2.7,1.4,5.8,4.2,6.5,6.4
			C32.8,11,31.4,13.7,29.6,15.3"/>
	</g>
	<g>
		<path class="st1" d="M101.5,68.3L101.5,68.3c0-8.8,6.7-16.3,16.1-16.3c4.7,0,7.8,1.1,10.7,3.2c0.5,0.4,1.1,1.2,1.1,2.2
			c0,1.5-1.2,2.7-2.7,2.7c-0.7,0-1.3-0.3-1.7-0.6c-2-1.5-4.2-2.5-7.6-2.5c-5.8,0-10.1,5.1-10.1,11v0.1c0,6.4,4.2,11.2,10.6,11.2
			c3,0,5.6-0.9,7.6-2.4v-5.9h-6.2c-1.3,0-2.5-1-2.5-2.4c0-1.3,1.1-2.4,2.5-2.4h8.7c1.6,0,2.8,1.2,2.8,2.8v8.4c0,1.6-0.6,2.7-1.9,3.5
			c-2.7,1.8-6.4,3.4-11.1,3.4C107.9,84.4,101.5,77.4,101.5,68.3z"/>
		<path class="st1" d="M134.7,68.3L134.7,68.3c0-8.9,6.8-16.3,16.4-16.3c9.6,0,16.3,7.3,16.3,16.1v0.1c0,8.8-6.8,16.2-16.4,16.2
			C141.5,84.4,134.7,77.1,134.7,68.3z M161.7,68.3L161.7,68.3c0-6.2-4.4-11.2-10.6-11.2c-6.2,0-10.5,5-10.5,11v0.1
			c0,6.1,4.4,11.1,10.6,11.1C157.4,79.3,161.7,74.4,161.7,68.3z"/>
		<path class="st1" d="M172.4,55.1c0-1.5,1.2-2.7,2.8-2.7c1.5,0,2.7,1.2,2.7,2.7v23.8h14.2c1.4,0,2.5,1.1,2.5,2.5
			c0,1.4-1.1,2.5-2.5,2.5h-16.9c-1.6,0-2.8-1.2-2.8-2.8V55.1z"/>
		<path class="st1" d="M198.3,55.4c0-1.6,1.2-2.8,2.8-2.8h8.9c9.8,0,16.6,6.7,16.6,15.6v0.1c0,8.8-6.8,15.6-16.6,15.6h-8.9
			c-1.6,0-2.8-1.2-2.8-2.8V55.4z M210,78.9c6.6,0,10.9-4.4,10.9-10.6v-0.1c0-6.1-4.3-10.6-10.9-10.6h-6.2v21.3H210z"/>
		<path class="st1" d="M231.5,81.1V55.4c0-1.6,1.2-2.8,2.8-2.8h18.2c1.3,0,2.5,1.1,2.5,2.5c0,1.4-1.1,2.5-2.5,2.5H237v8.1h13.5
			c1.3,0,2.5,1.1,2.5,2.5c0,1.3-1.1,2.4-2.5,2.4H237V79h15.7c1.3,0,2.5,1.1,2.5,2.5c0,1.4-1.1,2.5-2.5,2.5h-18.4
			C232.7,83.9,231.5,82.7,231.5,81.1z"/>
		<path class="st1" d="M259.7,55.2c0-1.5,1.2-2.8,2.8-2.8h0.6c1.3,0,2.1,0.7,2.9,1.6l15.6,20.2V55c0-1.5,1.2-2.7,2.7-2.7
			c1.5,0,2.7,1.2,2.7,2.7v26.3c0,1.5-1.2,2.7-2.7,2.7h-0.2c-1.3,0-2.1-0.7-2.9-1.7l-16.1-20.8v19.8c0,1.5-1.2,2.7-2.7,2.7
			c-1.5,0-2.7-1.2-2.7-2.7V55.2z"/>
		<path class="st1" d="M312.6,57.7H305c-1.4,0-2.5-1.2-2.5-2.5c0-1.4,1.1-2.5,2.5-2.5h20.8c1.4,0,2.5,1.2,2.5,2.5
			c0,1.4-1.1,2.5-2.5,2.5h-7.6v23.7c0,1.5-1.3,2.7-2.8,2.7c-1.5,0-2.8-1.2-2.8-2.7V57.7z"/>
		<path class="st1" d="M332.2,55.4c0-1.6,1.2-2.8,2.8-2.8h11.2c3.9,0,7,1.2,9,3.1c1.7,1.7,2.6,4,2.6,6.7v0.1c0,5-2.9,8-7.1,9.3
			l6,7.6c0.5,0.7,0.9,1.3,0.9,2.1c0,1.5-1.3,2.5-2.6,2.5c-1.3,0-2.1-0.6-2.7-1.4l-7.6-9.7h-6.9v8.4c0,1.5-1.2,2.7-2.7,2.7
			c-1.6,0-2.8-1.2-2.8-2.7V55.4z M345.7,68.1c3.9,0,6.4-2.1,6.4-5.2v-0.1c0-3.4-2.4-5.2-6.5-5.2h-8v10.5H345.7z"/>
		<path class="st1" d="M362.8,81.1V55.4c0-1.6,1.2-2.8,2.8-2.8h18.2c1.3,0,2.5,1.1,2.5,2.5c0,1.4-1.1,2.5-2.5,2.5h-15.5v8.1h13.5
			c1.3,0,2.5,1.1,2.5,2.5c0,1.3-1.1,2.4-2.5,2.4h-13.5V79H384c1.3,0,2.5,1.1,2.5,2.5c0,1.4-1.1,2.5-2.5,2.5h-18.4
			C364,83.9,362.8,82.7,362.8,81.1z"/>
		<path class="st1" d="M391,81.1V55.4c0-1.6,1.2-2.8,2.8-2.8H412c1.3,0,2.5,1.1,2.5,2.5c0,1.4-1.1,2.5-2.5,2.5h-15.5v8.1h13.5
			c1.3,0,2.5,1.1,2.5,2.5c0,1.3-1.1,2.4-2.5,2.4h-13.5V79h15.7c1.3,0,2.5,1.1,2.5,2.5c0,1.4-1.1,2.5-2.5,2.5h-18.4
			C392.2,83.9,391,82.7,391,81.1z"/>
	</g>
</g>
</svg>
